PathFileType	4	(X/Y/Z)	/Users/itak/Documents/Research/Walk-IL/dataset/trc/00402_00012.trc
DataRate	CameraRate	NumFrames	NumMarkers	Units	OrigDataRate	OrigDataStartFrame	OrigNumFrames
100.000000	100.000000	4	53	mm	100.000000	250	667
Frame#	Time	RPSI			LPSI			L3			STRN			T10			C7			CLAV			RBAK			LBAK			LSHO			LUPA			LAEL			LAOL			LWTS			LWPS			LFRA			LIFD			LHPS			LHTS			RSHO			RUPA			RAEL			RAOL			RWTS			RWPS			RFRA			RIFD			RHTS			RHPS			RBHD			LFHD			RFHD			LBHD			LHIP			RHIP			RASI			LASI			LKNE			LTHI			LANK			LTIP			LTOE			LMT1			LMT5			LHEE			RKNE			RTHI			RANK			RTIP			RTOE			RMT1			RMT5			RHEE			
		X1	Y1	Z1	X2	Y2	Z2	X3	Y3	Z3	X4	Y4	Z4	X5	Y5	Z5	X6	Y6	Z6	X7	Y7	Z7	X8	Y8	Z8	X9	Y9	Z9	X10	Y10	Z10	X11	Y11	Z11	X12	Y12	Z12	X13	Y13	Z13	X14	Y14	Z14	X15	Y15	Z15	X16	Y16	Z16	X17	Y17	Z17	X18	Y18	Z18	X19	Y19	Z19	X20	Y20	Z20	X21	Y21	Z21	X22	Y22	Z22	X23	Y23	Z23	X24	Y24	Z24	X25	Y25	Z25	X26	Y26	Z26	X27	Y27	Z27	X28	Y28	Z28	X29	Y29	Z29	X30	Y30	Z30	X31	Y31	Z31	X32	Y32	Z32	X33	Y33	Z33	X34	Y34	Z34	X35	Y35	Z35	X36	Y36	Z36	X37	Y37	Z37	X38	Y38	Z38	X39	Y39	Z39	X40	Y40	Z40	X41	Y41	Z41	X42	Y42	Z42	X43	Y43	Z43	X44	Y44	Z44	X45	Y45	Z45	X46	Y46	Z46	X47	Y47	Z47	X48	Y48	Z48	X49	Y49	Z49	X50	Y50	Z50	X51	Y51	Z51	X52	Y52	Z52	X53	Y53	Z53	

251	2.5	1375.621215820312	953.0042114257812	235.3677978515625	1250.144409179688	935.4181518554688	275.76611328125	1307.8701171875	1030.144165039062	255.5888061523438	1245.080688476562	1176.864990234375	19.11565589904785	1292.146606445312	1131.330200195312	266.5045471191406	1260.399291992188	1377.815551757812	222.2881011962891	1248.217407226562	1297.106811523438	70.11171722412109	1335.344360351562	1237.10498046875	262.4503479003906	1163.423950195312	1337.803100585938	254.5491638183594	1100.107788085938	1353.463745117188	175.6902313232422	1039.704345703125	1234.713012695312	217.1121826171875	1013.184326171875	1042.694580078125	211.5087738037109	1083.792358398438	1015.097595214844	255.3960113525391	1031.810546875	930.30615234375	22.42758369445801	973.2791748046875	886.244873046875	60.70397186279297	995.642822265625	967.0951538085938	157.1185760498047	1012.289611816406	796.2307739257812	-96.61130523681641	973.1812744140625	826.4990844726562	-3.969150066375732	1001.715270996094	867.9601440429688	-50.04721832275391	1409.242431640625	1362.415161132812	149.6822967529297	1466.765869140625	1305.609130859375	168.4544677734375	1512.038696289062	1054.993041992188	230.4051971435547	1418.417602539062	1043.3857421875	233.7070922851562	1525.730224609375	813.2557373046875	166.5376434326172	1575.816772460938	822.8243408203125	220.10986328125	1538.381713867188	990.6177978515625	226.4765167236328	1536.368530273438	650.618408203125	227.9617614746094	1552.075073242188	712.72265625	189.3890991210938	1580.048950195312	738.472900390625	247.5959930419922	1338.781860351562	1568.429931640625	159.3868713378906	1156.669921875	1562.993041992188	75.96688842773438	1274.15234375	1578.620727539062	43.08491897583008	1191.239990234375	1544.703247070312	219.7533721923828	1117.490966796875	913.3698120117188	223.3128662109375	1460.3818359375	946.3029174804688	118.0181503295898	1367.418212890625	947.732666015625	11.21296691894531	1123.536987304688	918.4417724609375	96.52985382080078	1232.255493164062	427.5382995605469	143.3849792480469	1188.399291992188	564.564453125	159.5214996337891	1355.510009765625	26.97359085083008	287.716552734375	1292.369995117188	204.3881530761719	213.0370330810547	1424.499633789062	27.81218719482422	74.44905090332031	1452.99169921875	29.80764007568359	156.2831420898438	1350.264892578125	27.40508460998535	161.9770202636719	1408.970703125	27.7280216217041	328.6044921875	1436.835205078125	488.6575012207031	-77.33687591552734	1447.63818359375	739.8543701171875	-12.10924434661865	1466.689575195312	59.25419235229492	-132.7556915283203	1434.60888671875	367.4493103027344	-114.6183319091797	1361.86572265625	84.86112976074219	-275.2032775878906	1348.531372070312	64.581298828125	-202.2742309570312	1448.861450195312	57.23661804199219	-216.5721435546875	1435.355224609375	27.1580696105957	-51.92808151245117	
252	2.51	1375.744384765625	950.9517822265625	225.0583038330078	1251.016357421875	933.6182861328125	267.4205932617188	1308.490844726562	1028.521728515625	246.3667144775391	1242.449462890625	1174.808471679688	10.75843334197998	1292.972412109375	1129.69140625	257.7411804199219	1260.15771484375	1376.002807617188	213.3517303466797	1246.175048828125	1295.081176757812	61.52987670898438	1335.620849609375	1235.459106445312	252.9020538330078	1163.655395507812	1336.146850585938	246.8952331542969	1099.312255859375	1351.751098632812	168.8495635986328	1039.742431640625	1232.697509765625	211.1954650878906	1013.29931640625	1041.13330078125	206.2273864746094	1084.40087890625	1012.909484863281	248.8653106689453	1029.09619140625	933.917236328125	14.57498550415039	970.962646484375	888.7730712890625	52.47493362426758	994.8917846679688	966.97802734375	150.8831329345703	1007.520324707031	803.3169555664062	-107.9918060302734	970.0377807617188	829.3955688476562	-12.34422874450684	997.7531127929688	873.7608032226562	-59.17549514770508	1408.165649414062	1360.537719726562	139.0050354003906	1465.85302734375	1303.884765625	157.2581176757812	1511.291381835938	1053.626586914062	220.1270751953125	1417.638671875	1041.967407226562	224.5276031494141	1523.328979492188	811.40576171875	157.2790222167969	1574.224243164062	821.0511474609375	210.0516662597656	1537.443603515625	989.0989990234375	216.114990234375	1534.479370117188	648.4768676757812	218.7663116455078	1549.859619140625	711.2239990234375	179.7569580078125	1578.652465820312	736.9010620117188	237.6419372558594	1338.319580078125	1566.369262695312	149.1128234863281	1155.096557617188	1561.24609375	67.95020294189453	1272.149536132812	1576.560424804688	33.65741729736328	1191.5439453125	1543.010009765625	211.4052429199219	1117.649658203125	911.904296875	217.1125640869141	1458.797119140625	943.5318603515625	107.071662902832	1364.535034179688	945.7987670898438	1.051491379737854	1122.219970703125	916.5535278320312	89.24615478515625	1231.704711914062	425.9686889648438	137.7146453857422	1187.3896484375	563.1951293945312	153.3776550292969	1355.593383789062	27.08341598510742	287.6141967773438	1292.167236328125	203.7115325927734	210.2088317871094	1424.487426757812	27.58786392211914	74.23552703857422	1452.892211914062	29.76205062866211	156.1651000976562	1349.318115234375	27.58039665222168	161.8625030517578	1408.929321289062	28.22383117675781	328.5314025878906	1432.907958984375	486.9650573730469	-88.70893859863281	1444.409912109375	737.4486083984375	-22.36725044250488	1450.853881835938	58.75865936279297	-163.0358581542969	1427.6416015625	367.2515869140625	-129.8210601806641	1342.653198242188	92.72767639160156	-301.1919860839844	1330.968872070312	70.50292205810547	-228.5349426269531	1430.554931640625	60.36086654663086	-246.4851226806641	1420.93115234375	24.56829261779785	-82.42758941650391	
253	2.52	1375.679565429688	948.7122802734375	214.7419281005859	1251.65283203125	931.6376342773438	258.9432067871094	1308.873046875	1026.784057617188	236.9860992431641	1239.817016601562	1172.677978515625	2.35175609588623	1293.500244140625	1127.869995117188	248.7987213134766	1259.774047851562	1374.075561523438	204.4160766601562	1244.102172851562	1292.971313476562	52.9073371887207	1335.757934570312	1233.679321289062	243.3509521484375	1163.744140625	1334.391723632812	239.1399536132812	1098.442016601562	1349.870849609375	161.8224334716797	1039.714111328125	1230.607543945312	205.1142883300781	1013.32373046875	1039.421752929688	200.7057342529297	1084.85546875	1010.659118652344	242.1734619140625	1026.413940429688	936.9866333007812	6.905339241027832	968.5809936523438	890.9006958007812	44.47876739501953	994.0740356445312	966.6106567382812	144.5903015136719	1002.749572753906	809.6871337890625	-118.7614364624023	966.9100341796875	831.5741577148438	-20.13766670227051	993.802978515625	878.8858642578125	-67.91335296630859	1406.984985351562	1358.547607421875	128.4103698730469	1464.817993164062	1302.000366210938	146.1605987548828	1510.528076171875	1052.048583984375	209.7066497802734	1416.915893554688	1040.418823242188	215.1938323974609	1520.99560546875	809.482421875	147.5597991943359	1572.667236328125	819.0984497070312	199.5639495849609	1536.490478515625	987.3790283203125	205.5537414550781	1532.491821289062	645.7899780273438	209.2100524902344	1547.497314453125	709.08203125	169.9427185058594	1577.231689453125	735.0806274414062	227.1576385498047	1337.716064453125	1564.229614257812	138.8907775878906	1153.455932617188	1559.413940429688	59.9130859375	1270.083251953125	1574.469482421875	24.25319480895996	1191.704467773438	1541.186767578125	203.0201873779297	1117.646850585938	910.2986450195312	210.7061309814453	1457.147216796875	940.709716796875	96.13297271728516	1361.656127929688	943.8370971679688	-9.063046455383301	1120.861328125	914.357177734375	81.86304473876953	1231.113037109375	424.2750854492188	131.9773406982422	1186.244506835938	561.7193603515625	147.1395416259766	1355.724243164062	27.22258567810059	287.5048217773438	1291.847412109375	203.0383148193359	207.3309020996094	1424.501098632812	27.3290843963623	73.98933410644531	1452.827392578125	29.7841682434082	155.9940185546875	1348.280883789062	27.7784252166748	161.7144165039062	1408.9169921875	28.82853889465332	328.4490661621094	1428.794555664062	485.0704650878906	-99.96653747558594	1441.198486328125	734.9653930664062	-32.71537017822266	1434.702392578125	58.7892951965332	-191.2013092041016	1420.593872070312	366.9931945800781	-144.4074859619141	1323.607299804688	100.6156005859375	-325.0129699707031	1313.4677734375	76.66767120361328	-252.6360778808594	1412.121337890625	63.77574157714844	-274.1864318847656	1405.995849609375	22.75748062133789	-110.8466796875	
254	2.53	1375.468139648438	946.34521484375	204.4203796386719	1252.087524414062	929.5258178710938	250.3385925292969	1309.03857421875	1024.9501953125	227.4783782958984	1237.168701171875	1170.50048828125	-6.106427192687988	1293.721557617188	1125.899536132812	239.6619110107422	1259.251098632812	1372.074096679688	195.4622650146484	1241.983764648438	1290.801147460938	44.24617767333984	1335.752685546875	1231.785766601562	233.7880859375	1163.688232421875	1332.5625	231.2860565185547	1097.488647460938	1347.852294921875	154.6238555908203	1039.601928710938	1228.470458984375	198.8688659667969	1013.237243652344	1037.586181640625	194.9273834228516	1085.140014648438	1008.376708984375	235.3243103027344	1023.743957519531	939.4968872070312	-0.6058032512664795	966.1334228515625	892.6261596679688	36.69567489624023	993.1728515625	966.0203857421875	138.232421875	998.0068969726562	815.2655639648438	-128.9496307373047	963.7789916992188	833.116943359375	-27.47559356689453	989.8762817382812	883.2838745117188	-76.29460144042969	1405.7060546875	1356.46533203125	117.8921203613281	1463.666259765625	1299.97412109375	135.1565399169922	1509.73779296875	1050.26611328125	199.1365966796875	1416.241333007812	1038.773681640625	205.6937713623047	1518.726806640625	807.5053100585938	137.3721466064453	1571.140380859375	816.9891357421875	188.6397247314453	1535.509155273438	985.4660034179688	194.7887115478516	1530.45947265625	642.7282104492188	199.2389221191406	1545.0478515625	706.464111328125	159.8441314697266	1575.79345703125	733.0355224609375	216.1572113037109	1336.97216796875	1562.04150390625	128.7119140625	1151.742797851562	1557.519775390625	51.85395050048828	1267.952026367188	1572.367431640625	14.87622261047363	1191.719604492188	1539.264892578125	194.5984954833984	1117.49755859375	908.5662231445312	204.0806274414062	1455.4716796875	937.9286499023438	85.16135406494141	1358.772827148438	941.8673706054688	-19.12757682800293	1119.459838867188	911.9298706054688	74.43560791015625	1230.526977539062	422.4745178222656	126.1964340209961	1185.057739257812	560.1517944335938	140.8507080078125	1355.925659179688	27.41517066955566	287.3897094726562	1291.44580078125	202.3914337158203	204.4331207275391	1424.514404296875	27.0401554107666	73.70411682128906	1452.78759765625	29.88083648681641	155.7809600830078	1347.365234375	27.94841957092285	161.5542144775391	1408.971313476562	29.57250595092773	328.350830078125	1424.379516601562	483.0289611816406	-111.193977355957	1437.995727539062	732.4756469726562	-43.26165008544922	1418.577392578125	59.18670654296875	-217.0141143798828	1413.401123046875	366.6369018554688	-158.4379425048828	1305.001220703125	108.159782409668	-346.5687866210938	1296.318115234375	82.70523071289062	-274.4600524902344	1393.908569335938	67.24391174316406	-299.4719543457031	1390.898071289062	21.56829261779785	-136.8927764892578	
